<?xml version="1.0" encoding="UTF-8"?>
<svg version="1.1" xmlns="http://www.w3.org/2000/svg" width="813" height="813">
<path d="M0 0 C268.29 0 536.58 0 813 0 C813 268.29 813 536.58 813 813 C544.71 813 276.42 813 0 813 C0 544.71 0 276.42 0 0 Z " fill="#000000" transform="translate(0,0)"/>
<path d="M0 0 C14.07100911 11.93421613 22.68114521 26.26516345 26.75 44.1875 C26.92289551 44.82260498 27.09579102 45.45770996 27.27392578 46.11206055 C31.44154831 64.28075753 25.62277028 84.79177445 16.01318359 100.25244141 C12.60062748 105.48010274 8.8952154 110.49732708 5.1796875 115.51171875 C1.72894984 120.17834665 -1.55538198 124.94694875 -4.8125 129.75 C-8.84513077 135.68295544 -12.91291574 141.58568366 -17.0625 147.4375 C-21.78636161 154.09998329 -26.46533341 160.792458 -31.125 167.5 C-36.19677091 174.79981124 -41.27574254 182.09435752 -46.375 189.375 C-46.9424292 190.18525635 -47.5098584 190.9955127 -48.09448242 191.83032227 C-51.01068513 195.99341865 -53.92874724 200.15520705 -56.84765625 204.31640625 C-64.03666625 214.5696004 -71.17776879 224.85338255 -78.25 235.1875 C-73.90786299 241.26649182 -69.11737209 246.86169523 -64.20678711 252.48022461 C-60.20763901 257.0622859 -56.32071976 261.71924887 -52.4921875 266.4453125 C-49.9474623 269.55750256 -47.3537793 272.6247312 -44.75 275.6875 C-40.62072475 280.54769622 -36.55439227 285.45358723 -32.53125 290.40234375 C-30.85593906 292.44771482 -29.17020155 294.48051108 -27.46875 296.50390625 C-27.0054126 297.05554443 -26.5420752 297.60718262 -26.06469727 298.17553711 C-24.75203656 299.73579061 -23.43663521 301.29373715 -22.12109375 302.8515625 C-20.25 305.1875 -20.25 305.1875 -20.25 306.1875 C-49.36962878 308.26348121 -49.36962878 308.26348121 -55.44140625 303.90234375 C-58.33242103 301.04600381 -60.24343325 297.70103934 -62.25 294.1875 C-63.71782957 292.34885033 -65.2175882 290.53518076 -66.75 288.75 C-67.471875 287.85410156 -68.19375 286.95820313 -68.9375 286.03515625 C-71.49866847 282.88128495 -74.11727297 279.78159063 -76.75 276.6875 C-80.87136492 271.83820754 -84.91992073 266.9358831 -88.9375 262 C-91.9743277 258.3065609 -95.06960955 254.66451514 -98.16625977 251.02124023 C-101.0454532 247.62795891 -103.88204237 244.20482214 -106.6875 240.75 C-110.14274151 236.50357618 -113.67697834 232.33453706 -117.25 228.1875 C-121.56928956 223.17430512 -125.80097119 218.1021268 -129.97265625 212.96484375 C-132.53203972 209.84353733 -135.13589916 206.76296576 -137.75 203.6875 C-141.10447127 199.74099519 -144.42221829 195.77107928 -147.6875 191.75 C-151.14274151 187.50357618 -154.67697834 183.33453706 -158.25 179.1875 C-162.56928956 174.17430512 -166.80097119 169.1021268 -170.97265625 163.96484375 C-173.98694393 160.28875706 -177.06523278 156.66898918 -180.14453125 153.04736328 C-183.98261728 148.52487279 -187.74002679 143.94213237 -191.47265625 139.33203125 C-193.22255709 137.15279769 -193.22255709 137.15279769 -195.25 135.1875 C-194.93334727 131.41053451 -193.79960894 129.16413024 -191.44140625 126.25390625 C-190.86438965 125.52993652 -190.28737305 124.8059668 -189.69287109 124.06005859 C-189.07234863 123.29773926 -188.45182617 122.53541992 -187.8125 121.75 C-186.52256481 120.13063622 -185.23481925 118.50952594 -183.94921875 116.88671875 C-183.3154834 116.0879834 -182.68174805 115.28924805 -182.02880859 114.46630859 C-179.63233506 111.39621746 -177.36160774 108.25009534 -175.125 105.0625 C-171.66347856 100.14517206 -168.12034135 95.30173454 -164.5 90.5 C-158.28158379 82.24925764 -152.15201995 73.93489524 -146.03222656 65.61083984 C-142.52620868 60.84361607 -139.01445218 56.08061686 -135.50268555 51.31762695 C-132.5687296 47.33755577 -129.6383062 43.35497426 -126.71484375 39.3671875 C-120.96034597 31.52281893 -115.1790165 23.69856378 -109.3125 15.9375 C-108.55151001 14.91922119 -108.55151001 14.91922119 -107.77514648 13.88037109 C-96.77688804 -0.5761305 -80.88019019 -11.51248278 -62.921875 -15.37109375 C-39.47850726 -18.18928583 -19.04057746 -14.50710663 0 0 Z " fill="#010101" transform="translate(570.25,188.8125)"/>
<path d="M0 0 C1.45684573 0.05525967 2.91389365 0.1054355 4.37109375 0.15039062 C7.91830818 0.27081025 11.45784821 0.46007197 15 0.6875 C13.64650435 3.56753366 12.10215936 6.05374164 10.19921875 8.6015625 C9.64105469 9.35308594 9.08289063 10.10460937 8.5078125 10.87890625 C7.90710938 11.68199219 7.30640625 12.48507813 6.6875 13.3125 C5.40941463 15.0333036 4.13208793 16.7546709 2.85546875 18.4765625 C2.20884277 19.34829102 1.5622168 20.22001953 0.89599609 21.11816406 C-1.93349779 24.95251812 -4.71851861 28.81824767 -7.5 32.6875 C-12.53960953 39.68998563 -17.64213851 46.64363887 -22.76953125 53.58203125 C-26.71415511 58.92607821 -30.61958115 64.29668549 -34.5 69.6875 C-41.84003533 79.88106463 -49.30454606 89.98151627 -56.77050781 100.08300781 C-63.59965419 109.32554661 -70.3920693 118.5913828 -77.10571289 127.91821289 C-81.03399002 133.36857106 -85.00724416 138.78423879 -89 144.1875 C-98.15151104 156.57674815 -107.24360789 169.01461251 -116 181.6875 C-114.29957897 185.83163986 -111.35850595 188.93133235 -108.4375 192.25 C-107.34144897 193.51085107 -106.24640511 194.77257833 -105.15234375 196.03515625 C-104.61335449 196.65664551 -104.07436523 197.27813477 -103.51904297 197.91845703 C-101.46864567 200.30630319 -99.48066779 202.74164785 -97.5 205.1875 C-94.06792143 209.41542288 -90.55453161 213.56281796 -87 217.6875 C-82.70027287 222.67690767 -78.49514591 227.72971156 -74.34375 232.84375 C-71.60697951 236.16436486 -68.8089705 239.42796782 -66 242.6875 C-62.44546839 246.81218204 -58.93207857 250.95957712 -55.5 255.1875 C-51.11287098 260.58826172 -46.58776588 265.862177 -42.05078125 271.13671875 C-35.80572679 278.39781003 -29.6036885 285.69303429 -23.5625 293.125 C-19.60491812 297.98879025 -15.53457554 302.74631231 -11.44165039 307.49584961 C-8.41054711 311.02048919 -5.43014684 314.57789882 -2.5 318.1875 C0.89616958 322.36834414 4.36379077 326.47848875 7.875 330.5625 C8.37620361 331.14620361 8.87740723 331.72990723 9.39379883 332.33129883 C11.45722118 334.73317136 13.52168966 337.13409156 15.59228516 339.52978516 C17.1280954 341.30806683 18.65822475 343.09109815 20.1875 344.875 C20.65720215 345.41560059 21.1269043 345.95620117 21.61083984 346.51318359 C23.66116338 348.9127591 24.99023033 350.65819098 26 353.6875 C21.62627273 353.96225092 17.25726819 354.1602289 12.87744141 354.29174805 C11.39282693 354.34662053 9.90879466 354.42136328 8.42626953 354.51733398 C-3.83785752 355.29056115 -3.83785752 355.29056115 -9.11669922 351.37670898 C-11.65752674 348.59491265 -13.84138 345.771762 -16 342.6875 C-17.44691628 340.90732583 -18.90370628 339.13507999 -20.375 337.375 C-21.46941406 336.01955078 -21.46941406 336.01955078 -22.5859375 334.63671875 C-25.33861873 331.2738153 -28.16181769 327.97820431 -31 324.6875 C-35.29995131 319.69828981 -39.50486032 314.64528077 -43.65625 309.53125 C-46.39302049 306.21063514 -49.1910295 302.94703218 -52 299.6875 C-56.29972713 294.69809233 -60.50485409 289.64528844 -64.65625 284.53125 C-67.39302049 281.21063514 -70.1910295 277.94703218 -73 274.6875 C-77.29972713 269.69809233 -81.50485409 264.64528844 -85.65625 259.53125 C-88.89963763 255.59593967 -92.23146797 251.73930698 -95.56079102 247.87670898 C-98.57245009 244.37514698 -101.5305895 240.83963443 -104.4375 237.25 C-108.57144457 232.15571985 -112.8630397 227.211276 -117.17431641 222.26757812 C-121.9011862 216.83426582 -126.48522487 211.29888718 -131 205.6875 C-134.90497637 206.98915879 -136.15423988 209.36375945 -138.375 212.625 C-139.27273771 213.91194677 -140.17121099 215.19838065 -141.0703125 216.484375 C-141.54629883 217.16951172 -142.02228516 217.85464844 -142.51269531 218.56054688 C-145.05297363 222.19332834 -147.65189588 225.78345691 -150.25 229.375 C-151.06670166 230.50603149 -151.06670166 230.50603149 -151.89990234 231.65991211 C-156.48263185 237.99666567 -161.12102635 244.29150625 -165.76855469 250.58081055 C-169.7135965 255.92519475 -173.61938631 261.29618512 -177.5 266.6875 C-182.54007819 273.68965242 -187.64213385 280.64363256 -192.76953125 287.58203125 C-196.71415404 292.92607676 -200.61969056 298.29660781 -204.5 303.6875 C-208.96020992 309.88404468 -213.4626319 316.04723346 -218 322.1875 C-222.67708152 328.51929847 -227.3273435 334.86927615 -231.9375 341.25 C-232.74622559 342.36930908 -232.74622559 342.36930908 -233.57128906 343.51123047 C-237.05317223 348.34307645 -240.47859697 353.20801139 -243.828125 358.1328125 C-244.40820312 358.90238281 -244.40820312 358.90238281 -245 359.6875 C-245.33 359.6875 -245.66 359.6875 -246 359.6875 C-246 241.5475 -246 123.4075 -246 1.6875 C-238.08 1.6875 -230.16 1.6875 -222 1.6875 C-221.67 94.4175 -221.34 187.1475 -221 282.6875 C-217.04 277.0775 -213.08 271.4675 -209 265.6875 C-206.69960605 262.53070292 -204.39504076 259.38235212 -202.0625 256.25 C-197.5005952 250.09142852 -192.97614458 243.90868632 -188.5 237.6875 C-183.97953838 231.40593612 -179.41278735 225.16083245 -174.8125 218.9375 C-170.83121052 213.55104952 -166.87573462 208.15044022 -163 202.6875 C-159.12426404 197.22455788 -155.1686988 191.82401915 -151.1875 186.4375 C-144.38873546 177.23711309 -137.68225909 167.97270846 -131 158.6875 C-123.79936792 148.68199602 -116.55749214 138.71061522 -109.23291016 128.79541016 C-103.09080366 120.47247251 -97.04209317 112.08317785 -91 103.6875 C-83.79877656 93.6811743 -76.55744101 83.70810494 -69.23071289 73.79321289 C-65.28592959 68.44914384 -61.38037592 63.07848455 -57.5 57.6875 C-53.03979112 51.49095676 -48.53747339 45.32768768 -44 39.1875 C-38.32449337 31.50655303 -32.71229513 23.78216716 -27.1328125 16.03125 C-26.36952637 15.01285034 -26.36952637 15.01285034 -25.59082031 13.97387695 C-23.90145082 11.63639879 -23.90145082 11.63639879 -22.40136719 8.73510742 C-16.66155004 -1.03153547 -10.23893429 -0.67725195 0 0 Z " fill="#FDFDFD" transform="translate(459,141.3125)"/>
<path d="M0 0 C14.07100911 11.93421613 22.68114521 26.26516345 26.75 44.1875 C26.92289551 44.82260498 27.09579102 45.45770996 27.27392578 46.11206055 C31.44154831 64.28075753 25.62277028 84.79177445 16.01318359 100.25244141 C12.60062748 105.48010274 8.8952154 110.49732708 5.1796875 115.51171875 C1.72894984 120.17834665 -1.55538198 124.94694875 -4.8125 129.75 C-8.84513077 135.68295544 -12.91291574 141.58568366 -17.0625 147.4375 C-21.78636161 154.09998329 -26.46533341 160.792458 -31.125 167.5 C-36.19677091 174.79981124 -41.27574254 182.09435752 -46.375 189.375 C-46.9424292 190.18525635 -47.5098584 190.9955127 -48.09448242 191.83032227 C-51.01068513 195.99341865 -53.92874724 200.15520705 -56.84765625 204.31640625 C-64.03666625 214.5696004 -71.17776879 224.85338255 -78.25 235.1875 C-73.90786299 241.26649182 -69.11737209 246.86169523 -64.20678711 252.48022461 C-60.20763901 257.0622859 -56.32071976 261.71924887 -52.4921875 266.4453125 C-49.9474623 269.55750256 -47.3537793 272.6247312 -44.75 275.6875 C-40.62072475 280.54769622 -36.55439227 285.45358723 -32.53125 290.40234375 C-30.85593906 292.44771482 -29.17020155 294.48051108 -27.46875 296.50390625 C-27.0054126 297.05554443 -26.5420752 297.60718262 -26.06469727 298.17553711 C-24.75203656 299.73579061 -23.43663521 301.29373715 -22.12109375 302.8515625 C-20.25 305.1875 -20.25 305.1875 -20.25 306.1875 C-49.36962878 308.26348121 -49.36962878 308.26348121 -55.44140625 303.90234375 C-58.33242103 301.04600381 -60.24343325 297.70103934 -62.25 294.1875 C-63.71782957 292.34885033 -65.2175882 290.53518076 -66.75 288.75 C-67.471875 287.85410156 -68.19375 286.95820313 -68.9375 286.03515625 C-71.49866847 282.88128495 -74.11727297 279.78159063 -76.75 276.6875 C-80.87136492 271.83820754 -84.91992073 266.9358831 -88.9375 262 C-91.9743277 258.3065609 -95.06960955 254.66451514 -98.16625977 251.02124023 C-101.0454532 247.62795891 -103.88204237 244.20482214 -106.6875 240.75 C-110.14274151 236.50357618 -113.67697834 232.33453706 -117.25 228.1875 C-121.56928956 223.17430512 -125.80097119 218.1021268 -129.97265625 212.96484375 C-132.53203972 209.84353733 -135.13589916 206.76296576 -137.75 203.6875 C-141.10447127 199.74099519 -144.42221829 195.77107928 -147.6875 191.75 C-151.14274151 187.50357618 -154.67697834 183.33453706 -158.25 179.1875 C-162.56928956 174.17430512 -166.80097119 169.1021268 -170.97265625 163.96484375 C-173.98694393 160.28875706 -177.06523278 156.66898918 -180.14453125 153.04736328 C-183.98261728 148.52487279 -187.74002679 143.94213237 -191.47265625 139.33203125 C-193.22255709 137.15279769 -193.22255709 137.15279769 -195.25 135.1875 C-194.93334727 131.41053451 -193.79960894 129.16413024 -191.44140625 126.25390625 C-190.86438965 125.52993652 -190.28737305 124.8059668 -189.69287109 124.06005859 C-189.07234863 123.29773926 -188.45182617 122.53541992 -187.8125 121.75 C-186.52256481 120.13063622 -185.23481925 118.50952594 -183.94921875 116.88671875 C-183.3154834 116.0879834 -182.68174805 115.28924805 -182.02880859 114.46630859 C-179.63233506 111.39621746 -177.36160774 108.25009534 -175.125 105.0625 C-171.66347856 100.14517206 -168.12034135 95.30173454 -164.5 90.5 C-158.28158379 82.24925764 -152.15201995 73.93489524 -146.03222656 65.61083984 C-142.52620868 60.84361607 -139.01445218 56.08061686 -135.50268555 51.31762695 C-132.5687296 47.33755577 -129.6383062 43.35497426 -126.71484375 39.3671875 C-120.96034597 31.52281893 -115.1790165 23.69856378 -109.3125 15.9375 C-108.55151001 14.91922119 -108.55151001 14.91922119 -107.77514648 13.88037109 C-96.77688804 -0.5761305 -80.88019019 -11.51248278 -62.921875 -15.37109375 C-39.47850726 -18.18928583 -19.04057746 -14.50710663 0 0 Z M-87.25 26.1875 C-89.54364467 29.03037995 -91.68454933 31.96930857 -93.8125 34.9375 C-95.04022348 36.62640467 -96.26809224 38.31520373 -97.49609375 40.00390625 C-98.11726074 40.86258301 -98.73842773 41.72125977 -99.37841797 42.60595703 C-102.3551853 46.71192334 -105.36485402 50.79347447 -108.375 54.875 C-108.95709229 55.66551758 -109.53918457 56.45603516 -110.13891602 57.27050781 C-114.29983611 62.91626415 -118.49994928 68.53145323 -122.71582031 74.13623047 C-126.54762405 79.23644976 -130.34298024 84.36277393 -134.125 89.5 C-134.70733398 90.29100098 -135.28966797 91.08200195 -135.88964844 91.89697266 C-138.89564807 95.98245207 -141.89805524 100.07055015 -144.8984375 104.16015625 C-151.5764476 113.25426753 -158.31509079 122.28716722 -165.25 131.1875 C-163.59814194 135.10476339 -160.94575715 138.07838006 -158.1875 141.25 C-157.18544131 142.41731968 -156.18414971 143.58529826 -155.18359375 144.75390625 C-154.68585449 145.33414551 -154.18811523 145.91438477 -153.67529297 146.51220703 C-151.66474314 148.8754124 -149.70585357 151.27893529 -147.75 153.6875 C-144.46176517 157.72733137 -141.12278574 161.71842065 -137.75 165.6875 C-134.37721426 169.65657935 -131.03823483 173.64766863 -127.75 177.6875 C-123.13300575 183.35605166 -118.41289601 188.93292352 -113.67919922 194.50390625 C-111.73741287 196.79132658 -109.80080085 199.08310265 -107.86401367 201.37475586 C-103.67745201 206.32798207 -99.48014016 211.27139117 -95.25 216.1875 C-92.43598164 213.50615343 -90.16218689 210.8085835 -88 207.58203125 C-87.39808838 206.69008057 -86.79617676 205.79812988 -86.17602539 204.87915039 C-85.54043701 203.92903076 -84.90484863 202.97891113 -84.25 202 C-82.89563397 199.9940467 -81.54015421 197.98884493 -80.18359375 195.984375 C-79.51440918 194.99501953 -78.84522461 194.00566406 -78.15576172 192.98632812 C-75.58433686 189.20989787 -72.95896406 185.47407715 -70.3125 181.75 C-65.62830664 175.15135563 -60.99158851 168.52112981 -56.375 161.875 C-48.45813087 150.48011848 -40.50430096 139.111494 -32.54101562 127.74902344 C-31.69313477 126.53907715 -31.69313477 126.53907715 -30.828125 125.3046875 C-30.25908447 124.49265869 -29.69004395 123.68062988 -29.10375977 122.84399414 C-27.37329133 120.3725597 -25.64560568 117.89919558 -23.91796875 115.42578125 C-21.28849459 111.66332261 -18.64159545 107.91364853 -15.98828125 104.16796875 C-14.55458054 102.13288785 -13.12098479 100.097733 -11.6875 98.0625 C-11.02057129 97.12688232 -10.35364258 96.19126465 -9.66650391 95.22729492 C0.30258533 81.02901031 5.56502354 67.62933129 3.75 50.1875 C1.15437829 37.38536578 -6.43870261 24.98406794 -16.9609375 17.17578125 C-40.11100112 2.04895885 -68.47670642 5.4706365 -87.25 26.1875 Z " fill="#FCFCFC" transform="translate(570.25,188.8125)"/>
<path d="M0 0 C1.65 0 3.3 0 5 0 C5.99 3.3 6.98 6.6 8 10 C10.18975773 6.71536341 10.99806563 3.79303725 12 0 C12.99 0 13.98 0 15 0 C16.32 3.3 17.64 6.6 19 10 C19.99 6.7 20.98 3.4 22 0 C23.32 0 24.64 0 26 0 C24.63125844 6.95776959 22.5466871 13.38603107 20 20 C19.01 20 18.02 20 17 20 C15.68 16.37 14.36 12.74 13 9 C12.01 12.63 11.02 16.26 10 20 C8.68 20 7.36 20 6 20 C4.99513105 17.04329782 3.99693976 14.08438423 3 11.125 C2.71382813 10.28324219 2.42765625 9.44148437 2.1328125 8.57421875 C1.86210937 7.76855469 1.59140625 6.96289062 1.3125 6.1328125 C1.06113281 5.38918457 0.80976563 4.64555664 0.55078125 3.87939453 C0 2 0 2 0 0 Z " fill="#EBEBEB" transform="translate(456,560)"/>
<path d="M0 0 C4.88147688 1.22036922 5.46258112 2.52074263 8.25 6.5625 C8.95640625 7.57441406 9.6628125 8.58632813 10.390625 9.62890625 C10.92171875 10.41136719 11.4528125 11.19382812 12 12 C12.33 8.04 12.66 4.08 13 0 C14.32 0 15.64 0 17 0 C17 6.6 17 13.2 17 20 C15.68 20 14.36 20 13 20 C10.859375 17.59375 10.859375 17.59375 8.75 14.5 C8.04359375 13.4790625 7.3371875 12.458125 6.609375 11.40625 C6.07828125 10.6121875 5.5471875 9.818125 5 9 C4.67 12.63 4.34 16.26 4 20 C2.68 20 1.36 20 0 20 C0 13.4 0 6.8 0 0 Z " fill="#EEEEEE" transform="translate(301,560)"/>
<path d="M0 0 C8 0 8 0 10.5 1.125 C12 3 12 3 12.375 6.0625 C12 9 12 9 10 11 C10.43762807 14.17280351 11.77361505 17.05667611 13 20 C10.6875 19.8125 10.6875 19.8125 8 19 C6.1875 16.4375 6.1875 16.4375 5 14 C4.67 15.98 4.34 17.96 4 20 C2.68 20 1.36 20 0 20 C0 13.4 0 6.8 0 0 Z " fill="#E8E8E8" transform="translate(532,560)"/>
<path d="M0 0 C9 0 9 0 11.625 1.5625 C13.5994537 5.06266793 13.05489746 7.20236913 12 11 C9 13 9 13 5 13 C5 15.31 5 17.62 5 20 C3.35 20 1.7 20 0 20 C0 13.4 0 6.8 0 0 Z " fill="#D3D3D3" transform="translate(395,560)"/>
<path d="M0 0 C1.65 0.33 3.3 0.66 5 1 C6.38668321 3.68914271 7.37664034 6.0353203 8.3125 8.875 C8.57611328 9.60847656 8.83972656 10.34195313 9.11132812 11.09765625 C10.1877637 14.16759459 11 16.72661348 11 20 C9.68 20 8.36 20 7 20 C6.67 18.68 6.34 17.36 6 16 C3.69 16.33 1.38 16.66 -1 17 C-1.33 17.99 -1.66 18.98 -2 20 C-3.65 20 -5.3 20 -7 20 C-4.69 13.4 -2.38 6.8 0 0 Z " fill="#EBEBEB" transform="translate(430,560)"/>
<path d="M0 0 C1.32 0 2.64 0 4 0 C5.00577013 2.76886123 6.00480147 5.53984104 7 8.3125 C7.28617188 9.09818359 7.57234375 9.88386719 7.8671875 10.69335938 C8.13789062 11.45068359 8.40859375 12.20800781 8.6875 12.98828125 C9.06455078 14.03302612 9.06455078 14.03302612 9.44921875 15.09887695 C10 17 10 17 10 20 C8.68 20 7.36 20 6 20 C5.67 19.01 5.34 18.02 5 17 C2.69 17 0.38 17 -2 17 C-2.33 17.99 -2.66 18.98 -3 20 C-4.32 20 -5.64 20 -7 20 C-6.3899268 15.43138367 -5.18479121 11.47294276 -3.5 7.1875 C-3.0565625 6.04667969 -2.613125 4.90585937 -2.15625 3.73046875 C-1 1 -1 1 0 0 Z " fill="#EEEEEE" transform="translate(505,560)"/>
<path d="M0 0 C1.32 0 2.64 0 4 0 C5.16927504 3.14487007 6.33498164 6.29105081 7.5 9.4375 C7.83386719 10.33533203 8.16773438 11.23316406 8.51171875 12.15820312 C8.98544922 13.43920898 8.98544922 13.43920898 9.46875 14.74609375 C9.90864258 15.93223267 9.90864258 15.93223267 10.35742188 17.14233398 C11 19 11 19 11 20 C9.35 20 7.7 20 6 20 C6 18.68 6 17.36 6 16 C3.36 16 0.72 16 -2 16 C-2.33 17.32 -2.66 18.64 -3 20 C-4.32 20 -5.64 20 -7 20 C-5.07443364 13.14381674 -2.7527517 6.56747868 0 0 Z " fill="#ECECEC" transform="translate(342,560)"/>
<path d="M0 0 C1.32 0 2.64 0 4 0 C4.33 2.31 4.66 4.62 5 7 C5.30292969 6.4946875 5.60585937 5.989375 5.91796875 5.46875 C7.18414568 3.50520177 8.41018649 1.71442051 10 0 C12.8125 -0.4375 12.8125 -0.4375 15 0 C11.25 5.75 11.25 5.75 9 8 C9.35921395 11.16761396 10.65921007 13.18773744 12.5625 15.6875 C15 18.9121813 15 18.9121813 15 20 C12.8125 20.4375 12.8125 20.4375 10 20 C8.01558218 17.86004673 6.4976696 15.49824035 5 13 C4.67 15.31 4.34 17.62 4 20 C2.68 20 1.36 20 0 20 C0 13.4 0 6.8 0 0 Z " fill="#E8E8E8" transform="translate(236,560)"/>
<path d="M0 0 C1.32 0 2.64 0 4 0 C4.33 5.61 4.66 11.22 5 17 C6.65 16.34 8.3 15.68 10 15 C10.33 10.05 10.66 5.1 11 0 C12.32 0 13.64 0 15 0 C15.1081866 2.58445773 15.18737237 5.16437352 15.25 7.75 C15.30027344 8.84441406 15.30027344 8.84441406 15.3515625 9.9609375 C15.41564786 13.48563242 15.3037779 15.57161254 13.23828125 18.484375 C9.54430259 20.98570784 7.39687326 20.55833311 3 20 C0.12407222 17.48680185 -0.00298946 15.96029993 -0.29296875 12.109375 C-0.27314945 10.65595991 -0.23754845 9.20268833 -0.1875 7.75 C-0.17396484 7.00492188 -0.16042969 6.25984375 -0.14648438 5.4921875 C-0.11127204 3.66114584 -0.05746851 1.83047831 0 0 Z " fill="#EAEAEA" transform="translate(268,560)"/>
<path d="M0 0 C1.65 0 3.3 0 5 0 C5.99 3.3 6.98 6.6 8 10 C8.66 9.67 9.32 9.34 10 9 C10 9.66 10 10.32 10 11 C10.66 11 11.32 11 12 11 C11.34 13.97 10.68 16.94 10 20 C8.68 20 7.36 20 6 20 C4.99513105 17.04329782 3.99693976 14.08438423 3 11.125 C2.71382813 10.28324219 2.42765625 9.44148437 2.1328125 8.57421875 C1.86210937 7.76855469 1.59140625 6.96289062 1.3125 6.1328125 C1.06113281 5.38918457 0.80976563 4.64555664 0.55078125 3.87939453 C0 2 0 2 0 0 Z " fill="#E2E2E2" transform="translate(456,560)"/>
<path d="M0 0 C0.99 0 1.98 0 3 0 C3 5.28 3 10.56 3 16 C4.65 16 6.3 16 8 16 C8 16.99 8 17.98 8 19 C5.36 19 2.72 19 0 19 C0 12.73 0 6.46 0 0 Z " fill="#FEFEFE" transform="translate(370,561)"/>
<path d="M0 0 C0.99 0 1.98 0 3 0 C3 3.63 3 7.26 3 11 C2.34 10.67 1.68 10.34 1 10 C0.5859375 7.71484375 0.5859375 7.71484375 0.375 4.9375 C0.30023438 4.01839844 0.22546875 3.09929688 0.1484375 2.15234375 C0.09945313 1.44207031 0.05046875 0.73179687 0 0 Z " fill="#FCFCFC" transform="translate(314,561)"/>
<path d="M0 0 C2.35953094 2.35953094 2.49141413 3.77895617 3 7 C1.35 7 -0.3 7 -2 7 C-1.34 4.69 -0.68 2.38 0 0 Z " fill="#434343" transform="translate(506,566)"/>
<path d="M0 0 C1.32 0 2.64 0 4 0 C4 1.65 4 3.3 4 5 C2.68 5 1.36 5 0 5 C0 3.35 0 1.7 0 0 Z " fill="#1F1F1F" transform="translate(536,564)"/>
<path d="M0 0 C2 3 2 3 2 7 C0.68 7 -0.64 7 -2 7 C-1.34 4.69 -0.68 2.38 0 0 Z " fill="#393939" transform="translate(432,566)"/>
<path d="M0 0 C2.35953094 2.35953094 2.49141413 3.77895617 3 7 C1.68 7 0.36 7 -1 7 C-0.67 4.69 -0.34 2.38 0 0 Z " fill="#313131" transform="translate(343,566)"/>
<path d="M0 0 C1.32 0.33 2.64 0.66 4 1 C3.67 2.32 3.34 3.64 3 5 C2.01 5 1.02 5 0 5 C0 3.35 0 1.7 0 0 Z " fill="#131313" transform="translate(400,564)"/>
</svg>
